<svg width="80" height="25" viewBox="0 0 80 25" fill="none" xmlns="http://www.w3.org/2000/svg">
<rect width="80" height="25" rx="5" fill="black"/>
<path fill-rule="evenodd" clip-rule="evenodd" d="M17.0227 11.8295C17.006 10.1646 18.5485 9.35456 18.619 9.31684C17.7454 8.17879 16.3914 8.0233 15.9156 8.0109C14.7784 7.90397 13.6753 8.61893 13.096 8.61893C12.5051 8.61893 11.6131 8.02123 10.6516 8.0388C9.41438 8.05585 8.25694 8.6959 7.62214 9.68982C6.31206 11.7164 7.28913 14.6946 8.54428 16.3327C9.17214 17.1355 9.9058 18.0307 10.8661 17.9992C11.8056 17.9651 12.1565 17.464 13.2903 17.464C14.4136 17.464 14.7431 17.9992 15.7225 17.9785C16.7308 17.9651 17.3656 17.1732 17.9715 16.3631C18.6971 15.4446 18.9884 14.538 19 14.4915C18.9769 14.4848 17.0424 13.8251 17.0227 11.8295Z" fill="white"/>
<path fill-rule="evenodd" clip-rule="evenodd" d="M15.2239 7.08226C15.7325 6.52567 16.0805 5.76843 15.9839 5C15.2477 5.02852 14.3271 5.44558 13.797 5.98995C13.328 6.46965 12.909 7.25591 13.0172 7.99531C13.8441 8.04929 14.6932 7.63019 15.2239 7.08226Z" fill="white"/>
<path fill-rule="evenodd" clip-rule="evenodd" d="M30.1625 18.6426H31.5278L28.9403 10.5295H27.3495L24.7734 18.6426H26.1027L26.8151 16.2595H29.4146L30.1625 18.6426ZM28.5128 13.1418L29.1892 15.2597H27.0405L27.7054 13.1418C27.8792 12.4676 28.006 11.9579 28.0854 11.6129H28.1094C28.3066 12.4152 28.4413 12.9248 28.5128 13.1418Z" fill="white"/>
<path fill-rule="evenodd" clip-rule="evenodd" d="M37.3407 18.0044C37.874 17.4271 38.1403 16.6406 38.1403 15.6457C38.1403 14.755 37.9125 14.0369 37.4586 13.49C37.0041 12.9444 36.4359 12.6719 35.7554 12.6719C34.8849 12.6719 34.2362 13.0212 33.8088 13.7205H33.7847L33.7132 12.7926H32.5859C32.6172 13.4498 32.6334 14.0905 32.6334 14.7154V21.0142H33.9152V17.9446C34.2488 18.4988 34.7983 18.775 35.5624 18.775C36.27 18.775 36.8634 18.5183 37.3407 18.0044ZM36.4546 14.285C36.7083 14.6544 36.8345 15.1238 36.8345 15.6932C36.8345 16.3114 36.6999 16.8089 36.4305 17.1862C36.1618 17.5624 35.7861 17.752 35.3033 17.752C34.8921 17.752 34.5578 17.6051 34.3005 17.3124C34.0432 17.0186 33.9146 16.6595 33.9146 16.2352V15.2586C33.9146 15.1549 33.9344 15.0239 33.9741 14.8635C34.0528 14.5179 34.2212 14.2393 34.4785 14.0265C34.7352 13.8143 35.0226 13.707 35.3388 13.707C35.8053 13.707 36.1774 13.9003 36.4546 14.285Z" fill="white"/>
<path fill-rule="evenodd" clip-rule="evenodd" d="M43.9761 18.0044C44.5093 17.4271 44.7757 16.6406 44.7757 15.6457C44.7757 14.755 44.5472 14.0369 44.0939 13.49C43.6388 12.9444 43.0701 12.6719 42.3902 12.6719C41.519 12.6719 40.8704 13.0212 40.4435 13.7205H40.4195L40.3479 12.7926H39.2207C39.252 13.4498 39.2682 14.0905 39.2682 14.7154V21.0142H40.5499V17.9446C40.8842 18.4988 41.4337 18.775 42.1972 18.775C42.9054 18.775 43.4982 18.5183 43.9761 18.0044ZM43.0887 14.285C43.3424 14.6544 43.4693 15.1238 43.4693 15.6932C43.4693 16.3114 43.3346 16.8089 43.0653 17.1862C42.7972 17.5624 42.4214 17.752 41.9381 17.752C41.5257 17.752 41.1914 17.6045 40.9341 17.3124C40.678 17.0186 40.5487 16.6595 40.5487 16.2352V15.2586C40.5487 15.1549 40.5698 15.0239 40.6088 14.8635C40.6876 14.5179 40.8559 14.2393 41.1126 14.0265C41.3705 13.8143 41.6579 13.707 41.9741 13.707C42.4407 13.707 42.8122 13.9003 43.0887 14.285Z" fill="white"/>
<path fill-rule="evenodd" clip-rule="evenodd" d="M52.1936 16.3674C52.1936 17.0575 51.9562 17.619 51.4824 18.0525C50.9618 18.5255 50.235 18.7627 49.3031 18.7627C48.4422 18.7627 47.7521 18.5944 47.2314 18.2573L47.5278 17.174C48.0899 17.5111 48.7074 17.68 49.3795 17.68C49.8628 17.68 50.2386 17.569 50.5067 17.3489C50.776 17.1276 50.9113 16.8332 50.9113 16.465C50.9113 16.1351 50.7995 15.8584 50.5783 15.6334C50.3564 15.4097 49.9897 15.2 49.4751 15.0085C48.0743 14.4788 47.3733 13.7033 47.3733 12.6846C47.3733 12.0189 47.621 11.4739 48.1146 11.0477C48.6088 10.6222 49.2641 10.4094 50.0793 10.4094C50.8073 10.4094 51.4139 10.5381 51.8955 10.7947L51.5738 11.8543C51.1205 11.6055 50.6089 11.4812 50.0366 11.4812C49.5845 11.4812 49.2292 11.594 48.9761 11.8183C48.7627 12.0189 48.6539 12.2633 48.6539 12.5535C48.6539 12.8736 48.7771 13.1394 49.023 13.3473C49.2358 13.5399 49.6242 13.749 50.1857 13.9734C50.8746 14.255 51.3802 14.583 51.7049 14.9598C52.0313 15.3365 52.1936 15.8066 52.1936 16.3674Z" fill="white"/>
<path fill-rule="evenodd" clip-rule="evenodd" d="M56.4424 13.7678H55.0296V16.6081C55.0296 17.3305 55.2785 17.6908 55.7775 17.6908C56.0066 17.6908 56.1965 17.6713 56.3468 17.6304L56.3823 18.6175C56.1298 18.7132 55.7974 18.7613 55.3861 18.7613C54.8793 18.7613 54.4844 18.604 54.1982 18.2913C53.9132 17.9779 53.7707 17.453 53.7707 16.7142V13.7653H52.9297V12.7899H53.7707V11.7188L55.0296 11.3335V12.7899H56.4424V13.7678Z" fill="white"/>
<path fill-rule="evenodd" clip-rule="evenodd" d="M62.045 17.8842C62.5518 17.3068 62.8049 16.5686 62.8049 15.6693C62.8049 14.7939 62.5602 14.0812 62.0684 13.5283C61.5532 12.9595 60.8738 12.6736 60.0268 12.6736C59.1484 12.6736 58.4499 12.9632 57.9316 13.5405C57.4146 14.1178 57.1543 14.8604 57.1543 15.7669C57.1543 16.6332 57.4056 17.3513 57.9082 17.9207C58.4108 18.4901 59.0847 18.7748 59.9324 18.7748C60.8107 18.7748 61.5153 18.4779 62.045 17.8842ZM61.133 14.319C61.362 14.7037 61.4762 15.1633 61.4762 15.6992C61.4762 16.2363 61.3578 16.699 61.1227 17.0929C60.8444 17.5635 60.4602 17.8013 59.9709 17.8013C59.4695 17.8013 59.0829 17.569 58.8058 17.1038C58.5755 16.721 58.4619 16.2601 58.4619 15.7236C58.4619 15.1713 58.5755 14.7037 58.8058 14.319C59.0733 13.8545 59.4683 13.6228 59.9811 13.6228C60.4789 13.6228 60.8642 13.8545 61.133 14.319Z" fill="white"/>
<path fill-rule="evenodd" clip-rule="evenodd" d="M66.9725 13.9357C66.8456 13.9119 66.7097 13.9003 66.5685 13.9003C66.1176 13.9003 65.7689 14.0716 65.5236 14.4179C65.3102 14.7227 65.2038 15.108 65.2038 15.5731V18.6427H63.922V14.6349C63.922 13.9613 63.9094 13.3461 63.8848 12.7932H65.0012L65.0481 13.9125H65.0835C65.2194 13.5278 65.4322 13.2175 65.7244 12.9858C66.0106 12.7761 66.3184 12.6719 66.6508 12.6719C66.7693 12.6719 66.8763 12.681 66.9713 12.6957L66.9725 13.9357Z" fill="white"/>
<path fill-rule="evenodd" clip-rule="evenodd" d="M72.6582 16.0302C72.69 15.8699 72.7051 15.6736 72.7051 15.4407C72.7051 14.711 72.5349 14.0965 72.1958 13.6008C71.769 12.9753 71.1396 12.6626 70.3081 12.6626C69.4616 12.6626 68.7889 12.9753 68.2911 13.6008C67.815 14.1867 67.5781 14.9213 67.5781 15.8028C67.5781 16.7002 67.8342 17.4178 68.3434 17.9512C68.8544 18.484 69.5566 18.7511 70.4512 18.7511C71.1943 18.7511 71.8393 18.6303 72.3852 18.3895L72.1844 17.4873C71.7173 17.6726 71.1979 17.764 70.6286 17.764C70.1145 17.764 69.6949 17.6275 69.3709 17.3556C69.0144 17.0508 68.8274 16.6082 68.8136 16.0302H72.6582ZM71.2339 14.1044C71.4077 14.386 71.4919 14.7177 71.4828 15.1036L68.8136 15.1024C68.8526 14.711 68.9795 14.3726 69.1929 14.0916C69.4526 13.738 69.7935 13.5618 70.2131 13.5618C70.6706 13.5618 71.0121 13.7423 71.2339 14.1044Z" fill="white"/>
<path fill-rule="evenodd" clip-rule="evenodd" d="M28.1517 8.13304H28.8264L27.5476 4.21606H26.7624L25.4902 8.13304H26.1468L26.499 6.98268H27.7826L28.1517 8.13304ZM27.3374 5.47721L27.6715 6.50002H26.6101L26.9381 5.47721C27.0182 5.18199 27.0739 4.9534 27.1142 4.78787C27.1183 4.77108 27.1222 4.75494 27.126 4.73945H27.1381C27.2377 5.12869 27.3024 5.37241 27.3374 5.47721Z" fill="white"/>
<path fill-rule="evenodd" clip-rule="evenodd" d="M32.0077 5.30884L30.9289 8.13294H30.3133L29.2695 5.30884H29.9497L30.4366 6.80233C30.5187 7.05204 30.5888 7.29038 30.6413 7.51674H30.6588C30.706 7.31374 30.776 7.0754 30.8636 6.80233L31.3444 5.30884H32.0077Z" fill="white"/>
<path fill-rule="evenodd" clip-rule="evenodd" d="M34.2566 7.808L34.3037 8.13317L34.8733 8.13377C34.8443 7.96549 34.8322 7.74452 34.8322 7.45948V6.4193C34.8322 5.64022 34.4565 5.25098 33.7123 5.25098C33.3251 5.25098 32.9971 5.33242 32.7331 5.4953L32.8618 5.9079C33.0781 5.76837 33.3245 5.69831 33.606 5.69831C33.9986 5.69831 34.198 5.88454 34.198 6.25642V6.30852C33.1427 6.30852 32.5332 6.66902 32.5332 7.36606C32.5332 7.84273 32.8968 8.19724 33.4067 8.19724C33.7643 8.19724 34.0457 8.06969 34.239 7.808H34.2566ZM33.1602 7.296C33.1602 6.89538 33.5118 6.7265 34.2155 6.7265V7.16246C34.2155 7.49361 33.9165 7.73734 33.5939 7.73734C33.342 7.73734 33.1602 7.59242 33.1602 7.296Z" fill="white"/>
<path fill-rule="evenodd" clip-rule="evenodd" d="M35.8672 4.46587C35.8672 4.68085 36.0795 4.84373 36.3519 4.84373C36.6555 4.84373 36.867 4.69283 36.867 4.46587C36.8748 4.25089 36.6477 4.09399 36.3675 4.09399C36.0865 4.09399 35.8672 4.25089 35.8672 4.46587ZM36.7765 8.13313V5.30903H35.9585V8.13313H36.7765Z" fill="white"/>
<path fill-rule="evenodd" clip-rule="evenodd" d="M37.6953 4.01318H38.3284V8.13316H37.6953V4.01318Z" fill="white"/>
<path fill-rule="evenodd" clip-rule="evenodd" d="M40.9718 7.80787L41.0195 8.13303H41.5879C41.5601 7.96476 41.548 7.74379 41.548 7.45875V6.41857C41.548 5.63949 41.1717 5.25024 40.4275 5.25024C40.0403 5.25024 39.7123 5.33169 39.4484 5.49457L39.5776 5.90776C39.7939 5.76824 40.0403 5.69817 40.3218 5.69817C40.7144 5.69817 40.9138 5.88441 40.9138 6.25629V6.30838C39.8585 6.30838 39.249 6.66888 39.249 7.36593C39.249 7.8426 39.6127 8.19711 40.1225 8.19711C40.4801 8.19711 40.7616 8.06956 40.9549 7.80787H40.9718ZM39.876 7.29586C39.876 6.89524 40.2276 6.72637 40.9313 6.72637V7.16232C40.9313 7.49348 40.6323 7.7372 40.3097 7.7372C40.0578 7.7372 39.876 7.59229 39.876 7.29586Z" fill="white"/>
<path fill-rule="evenodd" clip-rule="evenodd" d="M43.216 7.69721C43.4099 8.02837 43.7083 8.19724 44.1124 8.19724C44.8391 8.19724 45.3731 7.55768 45.3731 6.68099C45.3731 5.83304 44.8923 5.25157 44.2061 5.25157C43.7899 5.25157 43.4854 5.40847 43.2976 5.72226H43.2861V4.01318H42.6519V7.37205C42.6519 7.6505 42.6458 7.90681 42.6289 8.13316H43.1677L43.204 7.69721H43.216ZM43.2861 6.49415C43.2861 6.0582 43.6195 5.74441 43.9838 5.74441C44.435 5.74441 44.7286 6.13426 44.7292 6.70375C44.7292 7.31396 44.4465 7.69721 43.9723 7.69721C43.5857 7.69721 43.2861 7.37744 43.2861 6.98819V6.49415Z" fill="white"/>
<path fill-rule="evenodd" clip-rule="evenodd" d="M46.3096 4.01318H46.942V8.13316H46.3096V4.01318Z" fill="white"/>
<path fill-rule="evenodd" clip-rule="evenodd" d="M48.4867 6.87191H50.387C50.4051 6.79645 50.4106 6.69765 50.4088 6.58746C50.4088 5.77963 49.9503 5.24487 49.2242 5.24487C48.416 5.24487 47.876 5.89581 47.876 6.76172C47.876 7.62704 48.4033 8.18515 49.2949 8.18515C49.664 8.18515 49.9805 8.12706 50.2499 8.01089L50.1514 7.57494C49.9231 7.66177 49.6652 7.70848 49.3831 7.70848C48.8557 7.70848 48.4994 7.40667 48.4867 6.87191ZM49.1789 5.68082C49.5836 5.68082 49.8071 5.98863 49.8071 6.42458H48.4867C48.529 5.99461 48.8153 5.68082 49.1789 5.68082Z" fill="white"/>
<path fill-rule="evenodd" clip-rule="evenodd" d="M52.8525 6.74447C52.8525 7.58104 53.392 8.19724 54.2243 8.19724C55.0748 8.19724 55.6438 7.58104 55.6438 6.69836C55.6438 5.83783 55.0917 5.25098 54.2721 5.25098C53.4034 5.25098 52.8525 5.87257 52.8525 6.74447ZM53.4983 6.7265C53.4983 6.13366 53.7912 5.70968 54.2485 5.70968C54.6937 5.70968 54.9866 6.13965 54.9866 6.71453C54.9866 7.27863 54.6876 7.73195 54.2425 7.73195C53.7973 7.73195 53.4983 7.30797 53.4983 6.7265Z" fill="white"/>
<path fill-rule="evenodd" clip-rule="evenodd" d="M59.0473 8.13303H58.4155V6.51139C58.4155 6.01196 58.2216 5.76165 57.8404 5.76165C57.4653 5.76165 57.2068 6.08143 57.2068 6.4533V8.13303H56.5749V6.11616C56.5749 5.86644 56.5677 5.59877 56.5508 5.30833H57.1077L57.1373 5.74428H57.1554C57.324 5.44247 57.6707 5.25024 58.0579 5.25024C58.6547 5.25024 59.0473 5.70356 59.0473 6.44133V8.13303Z" fill="white"/>
<path fill-rule="evenodd" clip-rule="evenodd" d="M63.1894 5.77954H62.493V7.15087C62.493 7.49999 62.6156 7.67425 62.8614 7.67425C62.9726 7.67425 63.0674 7.66227 63.1429 7.64491L63.1604 8.12158C63.0372 8.16829 62.8723 8.19164 62.6688 8.19164C62.1692 8.19164 61.872 7.91858 61.872 7.20357V5.77954H61.457V5.30886H61.872V4.79146L62.493 4.60522V5.30826H63.1894V5.77954Z" fill="white"/>
<path fill-rule="evenodd" clip-rule="evenodd" d="M66.5416 8.13316H65.9079V6.5235C65.9079 6.01808 65.714 5.76238 65.3335 5.76238C65.0055 5.76238 64.701 5.98335 64.701 6.43068V8.13316H64.0674V4.01318H64.701V5.70968H64.7131C64.9118 5.40188 65.2 5.25038 65.569 5.25038C66.1725 5.25038 66.5416 5.71507 66.5416 6.45343V8.13316Z" fill="white"/>
<path fill-rule="evenodd" clip-rule="evenodd" d="M67.8769 6.87191H69.7767C69.7942 6.79645 69.8002 6.69765 69.7978 6.58746C69.7978 5.77963 69.3399 5.24487 68.6133 5.24487C67.805 5.24487 67.2656 5.89581 67.2656 6.76172C67.2656 7.62704 67.793 8.18515 68.6839 8.18515C69.0536 8.18515 69.3707 8.12706 69.6395 8.01089L69.5405 7.57494C69.3134 7.66177 69.056 7.70848 68.7733 7.70848C68.2454 7.70848 67.889 7.40667 67.8769 6.87191ZM68.5692 5.68082C68.9739 5.68082 69.1962 5.98863 69.1962 6.42458H67.8769C67.9186 5.99461 68.2055 5.68082 68.5692 5.68082Z" fill="white"/>
</svg>
