<svg width="80" height="25" viewBox="0 0 80 25" fill="none" xmlns="http://www.w3.org/2000/svg">
<rect width="80" height="25" rx="5" fill="black"/>
<path fill-rule="evenodd" clip-rule="evenodd" d="M14.74 8.22251C14.74 8.22251 9.5161 5.34662 9.20929 5.17766C8.90198 5.0087 8.59619 5.11119 8.59619 5.46433V11.6038V17.868C8.59619 18.1323 8.81468 18.247 9.08167 18.1004C9.34815 17.9537 14.74 14.985 14.74 14.985C14.74 14.985 15.4725 14.582 15.8387 14.3805C16.4281 14.0561 17.6069 13.4075 17.6069 13.4075C17.6069 13.4075 20.0394 12.068 20.3631 11.8904C20.6862 11.7123 20.6551 11.4683 20.3825 11.3277C20.1094 11.1877 17.6069 9.80049 17.6069 9.80049L14.74 8.22251Z" fill="url(#paint0_linear)"/>
<path fill-rule="evenodd" clip-rule="evenodd" d="M15.1096 11.4425L7.86646 5.09814C7.69748 5.13442 7.59619 5.25124 7.59619 5.44783V11.4425V17.5871C7.59619 17.7539 7.66895 17.8531 7.75835 17.8868L15.1096 11.4425Z" fill="url(#paint1_linear)"/>
<mask id="mask0" mask-type="alpha" maskUnits="userSpaceOnUse" x="8" y="11" width="10" height="7">
<path fill-rule="evenodd" clip-rule="evenodd" d="M8.86688 17.7022L12.6576 15.6966C13.591 15.1985 14.3319 14.8031 14.3319 14.8031L17.0885 13.3731L15.2533 11.6555L8.59717 17.737C8.67136 17.76 8.80212 17.7475 8.90413 17.699" fill="white"/>
</mask>
<g mask="url(#mask0)">
<path fill-rule="evenodd" clip-rule="evenodd" d="M14.3233 8.54398C14.3137 8.56524 9.32814 5.89895 9.0375 5.76286C8.74203 5.58565 8.4502 5.68067 8.4502 5.99854V11.7022C8.4502 11.7001 8.4502 17.2622 8.4502 17.5001C8.4502 17.7529 8.65872 17.8592 8.89068 17.7358C9.16785 17.5873 14.3137 14.8349 14.3233 14.8133L17.0641 13.352C17.0498 13.3724 19.3714 12.1305 19.658 11.985C19.9886 11.8007 19.9589 11.5745 19.707 11.4665C19.4381 11.3143 17.0498 10.0282 17.0641 10.0052L14.3233 8.54398Z" fill="url(#paint2_linear)"/>
</g>
<path fill-rule="evenodd" clip-rule="evenodd" d="M8.99632 5.2001C8.86934 5.13447 8.74317 5.1157 8.64111 5.14223L15.2428 11.1839L17.0692 9.516L14.3162 8.04438C14.3162 8.04438 11.7213 6.65703 10.1546 5.81932L8.99632 5.2001Z" fill="url(#paint3_linear)"/>
<path fill-rule="evenodd" clip-rule="evenodd" d="M55.8336 18.4831L56.3622 18.0139C56.4133 17.9658 56.3416 18.001 56.3416 18.001C55.9843 18.167 55.5948 18.3281 55.0701 18.3281C54.0198 18.3281 53.0693 17.5595 52.7939 16.2378L53.6448 16.1755L56.243 15.1881L56.2402 15.1798C56.1604 14.9388 56.0146 14.4986 55.4687 14.1591C55.1366 13.9616 54.7282 13.8679 54.3306 13.8679C53.1928 13.8679 51.7979 14.6585 51.7979 16.2704C51.7979 17.049 52.1408 17.9424 52.9252 18.4622C53.4898 18.8464 54.0434 18.8679 54.3964 18.8679C54.7282 18.8679 55.1016 18.8285 55.4687 18.6717C55.5496 18.6369 55.6305 18.5928 55.7118 18.5484C55.7523 18.5263 55.7929 18.5041 55.8336 18.4831ZM55.0917 15.0814C55.0917 15.2272 54.9832 15.2899 54.7747 15.3625L52.7856 16.1893C52.7818 16.1249 52.7768 16.0605 52.7717 15.9966C52.7621 15.8739 52.7526 15.7529 52.7526 15.6369C52.7526 14.5061 53.5721 14.1804 54.0086 14.1804C54.5979 14.1804 55.0917 14.6633 55.0917 15.0814Z" fill="white"/>
<path fill-rule="evenodd" clip-rule="evenodd" d="M51.1806 17.7566C51.1806 18.1602 51.2545 18.223 51.6052 18.2547C51.7879 18.2756 51.97 18.2848 52.1502 18.3058L51.7557 18.5345H49.8755C50.1221 18.223 50.1644 18.1919 50.1644 17.9844V17.7526L50.1603 11.5761H49.3301L50.1293 11.2012H51.6551C51.3244 11.3877 51.2255 11.5013 51.1831 11.8649L51.1806 17.7566Z" fill="white"/>
<path fill-rule="evenodd" clip-rule="evenodd" d="M48.3456 14.5649C48.5889 14.7548 49.0965 15.1579 49.0965 15.9224C49.0965 16.6675 48.6542 17.0187 48.2081 17.3511L48.1891 17.3693C48.0568 17.4953 47.9111 17.634 47.9111 17.8434C47.9111 18.0619 48.0653 18.1823 48.1799 18.2718L48.1864 18.2769L48.5691 18.5575C49.0344 18.9304 49.4585 19.2724 49.4585 19.9671C49.4585 20.9135 48.4941 21.8678 46.6718 21.8678C45.1367 21.8678 44.3945 21.1734 44.3945 20.429C44.3945 20.0667 44.5845 19.5536 45.2111 19.2021C45.8591 18.8258 46.7339 18.7712 47.2149 18.7411L47.234 18.7399L47.2118 18.7128C47.0688 18.5383 46.9154 18.351 46.9154 18.0545C46.9154 17.9019 46.9586 17.8044 47.005 17.6998L47.0215 17.6624L47.014 17.6631C46.9006 17.6733 46.7866 17.6836 46.6827 17.6836C45.5592 17.6836 44.9241 16.8875 44.9241 16.1031C44.9241 15.6403 45.1464 15.1269 45.6028 14.7548C46.2068 14.2826 46.927 14.2012 47.4993 14.2012H49.6823L49.0036 14.5649H48.3456ZM47.6003 19.02C47.5126 19.0091 47.4601 19.0091 47.3544 19.0091C47.2576 19.0091 46.6806 19.0291 46.2338 19.173C45.9974 19.2559 45.3141 19.5008 45.3141 20.2284C45.3141 20.9544 46.0518 21.478 47.193 21.478C48.2184 21.478 48.7627 21.0066 48.7627 20.3719C48.7627 19.8496 48.4105 19.574 47.6003 19.02ZM48.1649 16.3493C48.1649 16.5309 48.1437 16.8507 47.8999 17.0822C47.733 17.241 47.4485 17.3631 47.1841 17.3631C46.2779 17.3631 45.8659 16.2491 45.8659 15.5774C45.8659 15.3167 45.9194 15.0456 46.0978 14.8367C46.266 14.6349 46.5623 14.5044 46.8358 14.5044C47.7126 14.5044 48.1649 15.6279 48.1649 16.3493Z" fill="white"/>
<path fill-rule="evenodd" clip-rule="evenodd" d="M39.1074 16.4052C39.1074 17.5755 40.0103 18.8679 41.6978 18.8679C43.4291 18.8679 44.3952 17.564 44.3952 16.3316C44.3952 15.0697 43.4177 13.8679 41.857 13.8679C40.2425 13.8679 39.1074 15.0379 39.1074 16.4052ZM43.3376 16.8615C43.3376 17.2692 43.2751 17.6875 43.0175 18.0226C42.7723 18.3571 42.347 18.5554 41.9303 18.5554C40.6392 18.5554 40.119 16.849 40.119 15.8145C40.119 15.3627 40.1932 14.9022 40.6092 14.5357C40.8643 14.3154 41.2182 14.1804 41.5695 14.1804C42.8906 14.1804 43.3376 15.9392 43.3376 16.8615Z" fill="white"/>
<path fill-rule="evenodd" clip-rule="evenodd" d="M33.8193 16.4052C33.8193 17.5755 34.721 18.8679 36.4096 18.8679C38.1418 18.8679 39.1071 17.564 39.1071 16.3316C39.1071 15.0697 38.1302 13.8679 36.5698 13.8679C34.9552 13.8679 33.8193 15.0379 33.8193 16.4052ZM38.0496 16.8615C38.0496 17.2692 37.9858 17.6875 37.7299 18.0226C37.4839 18.3571 37.0591 18.5554 36.6432 18.5554C35.3536 18.5554 34.8309 16.849 34.8309 15.8145C34.8309 15.3627 34.9048 14.9022 35.3217 14.5357C35.5775 14.3154 35.9278 14.1804 36.2806 14.1804C37.6011 14.1804 38.0496 15.9392 38.0496 16.8615Z" fill="white"/>
<path fill-rule="evenodd" clip-rule="evenodd" d="M32.7478 18.3704L31.3607 18.6967C30.7986 18.7877 30.2939 18.8678 29.7595 18.8678C27.084 18.8678 26.0645 16.8446 26.0645 15.2611C26.0645 13.3274 27.5089 11.5344 29.9827 11.5344C30.5061 11.5344 31.0096 11.6135 31.4683 11.742C32.1953 11.9518 32.5353 12.2104 32.7478 12.3619L31.942 13.1481L31.6023 13.2262L31.8445 12.8297C31.5164 12.5005 30.9133 11.8929 29.7687 11.8929C28.2384 11.8929 27.084 13.088 27.084 14.8327C27.084 16.7066 28.4021 18.4693 30.5162 18.4693C31.1374 18.4693 31.4572 18.3411 31.7476 18.2214V16.6149L30.2829 16.6959L31.0592 16.2675H33.1148L32.8634 16.516C32.7956 16.5752 32.7864 16.5954 32.7674 16.6748C32.7573 16.7655 32.7478 17.054 32.7478 17.1555V18.3704Z" fill="white"/>
<path fill-rule="evenodd" clip-rule="evenodd" d="M59.3959 20.5346V17.9612C59.8062 18.5004 60.4461 18.8444 61.1604 18.8444C62.5174 18.8444 63.4314 17.8629 63.4314 16.3512C63.4314 14.8293 62.5174 13.8679 61.1604 13.8679C60.4038 13.8679 59.7524 14.25 59.3959 14.732V13.9862H58.8486V20.5346H59.3959ZM61.0882 14.3472C62.2276 14.3472 62.8702 15.2313 62.8702 16.3905C62.8702 17.5514 62.2276 18.4431 61.0882 18.4431C60.3806 18.4431 59.7039 17.9012 59.4098 17.4443V15.326C59.7039 14.8701 60.3806 14.3472 61.0882 14.3472Z" fill="white"/>
<path fill-rule="evenodd" clip-rule="evenodd" d="M64.1357 12.2012H64.4883V18.8678H64.1357V12.2012Z" fill="white"/>
<path fill-rule="evenodd" clip-rule="evenodd" d="M70.3152 19.9943C70.4328 20.0431 70.6336 20.0731 70.7608 20.0731C71.0973 20.0731 71.3315 19.9452 71.542 19.4936L71.9432 18.6488L69.7764 13.8679H70.3899L72.2487 18.0109L74.0894 13.8679H74.7116L72.0689 19.652C71.7946 20.248 71.3631 20.5346 70.7705 20.5346C70.5926 20.5346 70.358 20.5052 70.2207 20.466L70.3152 19.9943Z" fill="white"/>
<path fill-rule="evenodd" clip-rule="evenodd" d="M69.0184 18.3382C69.0398 18.4606 69.069 18.6073 69.1078 18.7737H69.7761C69.7241 18.6188 69.685 18.4588 69.6606 18.2985C69.6368 18.1384 69.6276 17.9742 69.6276 17.8042V15.4372C69.6276 14.9305 69.4343 14.5429 69.049 14.2746C68.6634 14.0037 68.1517 13.8679 67.5194 13.8679C66.885 13.8679 66.3696 14.0058 65.9762 14.2801C65.581 14.5547 65.3952 14.8726 65.4166 15.2351L65.4288 15.2608H66.0224C66.0224 14.992 66.1573 14.7689 66.425 14.5889C66.6951 14.4125 67.0498 14.3219 67.4871 14.3219C67.9655 14.3219 68.3345 14.421 68.5975 14.6171C68.8594 14.8129 68.9906 15.0829 68.9906 15.4263V16.0224H67.638C66.9129 16.0224 66.3272 16.1558 65.8739 16.424C65.4207 16.691 65.1934 17.0401 65.1934 17.4702C65.1934 17.9008 65.3503 18.2412 65.6622 18.4924C65.9752 18.744 66.4138 18.8679 66.9788 18.8679C67.448 18.8679 67.7902 18.7837 68.1503 18.6118C68.5101 18.4412 68.7918 18.2245 68.9906 17.9642C68.9906 18.0912 69.0008 18.216 69.0184 18.3382ZM68.2561 18.1354C67.8946 18.3306 67.5408 18.4293 67.0486 18.4293C66.6711 18.4293 66.3751 18.3459 66.1585 18.1774C65.9426 18.0108 65.834 17.7908 65.834 17.5157C65.834 17.2242 66.0054 16.9735 66.3438 16.7664C66.6816 16.5586 67.1111 16.4556 67.6298 16.4556H68.9877V17.3817C68.8597 17.6882 68.6153 17.9413 68.2561 18.1354Z" fill="white"/>
<path fill-rule="evenodd" clip-rule="evenodd" d="M26.3525 6.57878C26.3525 5.168 27.5088 4.2605 28.9466 4.2605C29.9102 4.2605 30.5404 4.67731 30.9331 5.18773L30.2292 5.55753C29.9625 5.22131 29.4953 4.9598 28.9466 4.9598C27.9686 4.9598 27.2421 5.6314 27.2421 6.57878C27.2421 7.5123 27.9686 8.19776 28.9466 8.19776C29.4508 8.19776 29.8954 7.98956 30.1176 7.79479V7.10263H28.6354V6.41046H30.9775V8.08358C30.496 8.57427 29.7991 8.90336 28.9466 8.90336C27.5088 8.90336 26.3525 7.98326 26.3525 6.57878Z" fill="white"/>
<path fill-rule="evenodd" clip-rule="evenodd" d="M32.4004 8.90336V4.2605H35.9581V4.97799H33.3113V6.17469H35.9036V6.89175H33.3113V8.18629H35.9581V8.90336H32.4004Z" fill="white"/>
<path fill-rule="evenodd" clip-rule="evenodd" d="M37.9696 8.90336V4.97799H36.3145V4.2605H40.5837V4.97799H38.9285V8.90336H37.9696Z" fill="white"/>
<path fill-rule="evenodd" clip-rule="evenodd" d="M44.1406 4.2605H44.8522V8.90336H44.1406V4.2605Z" fill="white"/>
<path fill-rule="evenodd" clip-rule="evenodd" d="M46.8637 8.90336V4.97799H45.208V4.2605H49.4772V4.97799H47.8226V8.90336H46.8637Z" fill="white"/>
<path fill-rule="evenodd" clip-rule="evenodd" d="M54.9927 4.2605C53.4275 4.2605 52.3242 5.24288 52.3242 6.58214C52.3242 7.92098 53.4275 8.90336 54.9927 8.90336C56.5492 8.90336 57.6608 7.92098 57.6608 6.58214C57.6608 5.24288 56.5492 4.2605 54.9927 4.2605ZM54.9927 4.94327C56.0344 4.94327 56.7104 5.62884 56.7104 6.54779C56.7104 7.45966 56.0344 8.1523 54.9927 8.1523C53.9433 8.1523 53.2746 7.45966 53.2746 6.54779C53.2746 5.62884 53.9433 4.94327 54.9927 4.94327Z" fill="white"/>
<path fill-rule="evenodd" clip-rule="evenodd" d="M62.162 8.90336L59.5914 5.5833V8.90336H58.7275V4.2605H59.614L62.1325 7.47662V4.2605H62.9968V8.90336H62.162Z" fill="white"/>
<defs>
<linearGradient id="paint0_linear" x1="12.5906" y1="8.43497" x2="16.9048" y2="14.8031" gradientUnits="userSpaceOnUse">
<stop stop-color="#FF177B"/>
<stop offset="1" stop-color="#FFEC73"/>
</linearGradient>
<linearGradient id="paint1_linear" x1="4.93308" y1="-2.90585" x2="-2.30102" y2="13.7146" gradientUnits="userSpaceOnUse">
<stop stop-color="#064AA2"/>
<stop offset="1" stop-color="#63FFD4"/>
</linearGradient>
<linearGradient id="paint2_linear" x1="14.593" y1="7.11899" x2="5.58474" y2="12.7106" gradientUnits="userSpaceOnUse">
<stop stop-color="#FF4521"/>
<stop offset="1" stop-color="#8A33DB"/>
</linearGradient>
<linearGradient id="paint3_linear" x1="3.40786" y1="5.61039" x2="6.51783" y2="13.9831" gradientUnits="userSpaceOnUse">
<stop stop-color="#00A3B5"/>
<stop offset="1" stop-color="#D6FFA1"/>
</linearGradient>
</defs>
</svg>
