<svg width="30" height="28" xmlns="http://www.w3.org/2000/svg"><g fill="none" fill-rule="evenodd"><path d="M29.062 8H.938C.42 8 0 8.407 0 8.909v3.635c0 .505.42.91.938.91h.937v12.728c0 1.004.84 1.818 1.875 1.818h22.5c1.036 0 1.875-.814 1.875-1.818V13.455h.937a.922.922 0 0 0 .938-.91V8.909c0-.502-.42-.909-.938-.909z" fill="#F4B459"/><path d="M2 26.125C2 27.16 2.832 28 3.857 28h9.288L28 13H2v13.125z" fill="#DBA250"/><path d="M7.425 16C6.638 16 6 16.671 6 17.501 6 18.329 6.638 19 7.425 19c.788 0 1.425-.671 1.425-1.499 0-.83-.637-1.501-1.425-1.501zm4.75 0c-.786 0-1.425.671-1.425 1.501 0 .828.639 1.499 1.425 1.499.788 0 1.425-.671 1.425-1.499 0-.83-.637-1.501-1.425-1.501zm-4.75 5.001c-.787 0-1.425.67-1.425 1.498C6 23.329 6.638 24 7.425 24c.788 0 1.425-.671 1.425-1.501 0-.828-.637-1.498-1.425-1.498zm4.75 0c-.786 0-1.425.67-1.425 1.498 0 .83.639 1.501 1.425 1.501.788 0 1.425-.671 1.425-1.501 0-.828-.637-1.498-1.425-1.498zM18.825 16c-.787 0-1.425.671-1.425 1.501 0 .828.638 1.499 1.425 1.499.788 0 1.425-.671 1.425-1.499 0-.83-.637-1.501-1.425-1.501zm4.75 3c.788 0 1.425-.671 1.425-1.499 0-.83-.637-1.501-1.425-1.501-.787 0-1.425.671-1.425 1.501 0 .828.638 1.499 1.425 1.499zm-4.75 2.001c-.787 0-1.425.67-1.425 1.498 0 .83.638 1.501 1.425 1.501.788 0 1.425-.671 1.425-1.501 0-.828-.637-1.498-1.425-1.498zm4.75 0c-.787 0-1.425.67-1.425 1.498 0 .83.638 1.501 1.425 1.501.788 0 1.425-.671 1.425-1.501 0-.828-.637-1.498-1.425-1.498z" fill="#9E7E3A" fill-rule="nonzero"/><path d="M6.58.58a1.98 1.98 0 0 1 2.798 0l7.043 7.041a1.978 1.978 0 1 1-2.798 2.8L6.58 3.376a1.978 1.978 0 0 1 0-2.798z" fill="#475F6C"/><g transform="translate(6 16)" fill="#8E7133"><ellipse cx="12.379" cy="1.511" rx="1.368" ry="1.478"/><ellipse cx="5.997" cy="1.511" rx="1.368" ry="1.478"/><path d="M16.938.032c-.755 0-1.367.661-1.367 1.48 0 .407.153.777.4 1.045l1.934-2.09a1.309 1.309 0 0 0-.967-.435z"/><ellipse cx="1.438" cy="1.511" rx="1.368" ry="1.478"/><path d="M12.38 4.961c-.756 0-1.368.66-1.368 1.477 0 .409.153.778.4 1.047l1.934-2.091a1.31 1.31 0 0 0-.967-.433z"/><ellipse cx="5.997" cy="6.44" rx="1.368" ry="1.478"/><ellipse cx="1.438" cy="6.44" rx="1.368" ry="1.478"/></g></g></svg>