<?xml version="1.0" encoding="UTF-8"?>
<svg width="261px" height="42px" viewBox="0 0 261 42" version="1.1" xmlns="http://www.w3.org/2000/svg" xmlns:xlink="http://www.w3.org/1999/xlink">
    <!-- Generator: Sketch 52.2 (67145) - http://www.bohemiancoding.com/sketch -->
    <title>logo</title>
    <desc>Created with Sketch.</desc>
    <g id="Welcome" stroke="none" stroke-width="1" fill="none" fill-rule="evenodd">
        <g id="Главная" transform="translate(-248.000000, -180.000000)">
            <g id="main-picture" transform="translate(246.000000, 118.000000)">
                <g id="logo-slogan" transform="translate(0.000000, 62.000000)">
                    <g id="logo" transform="translate(2.000000, 0.000000)">
                        <path d="M26.2,24.44 L26.2,6.74 C26.2,5.8199954 26.2499995,5.060003 26.35,4.46 C26.4500005,3.859997 26.599999,3.3200024 26.8,2.84 C27.1200016,2.1599966 27.6599962,1.6100021 28.42,1.19 C29.1800038,0.7699979 29.959996,0.56 30.76,0.56 C31.6000042,0.56 32.3999962,0.7699979 33.16,1.19 C33.9200038,1.6100021 34.4599984,2.1599966 34.78,2.84 C34.980001,3.3200024 35.1299995,3.859997 35.23,4.46 C35.3300005,5.060003 35.38,5.8199954 35.38,6.74 L35.38,35.54 C35.38,36.7000058 35.3300005,37.5399974 35.23,38.06 C35.1299995,38.5800026 34.9200016,39.0599978 34.6,39.5 C34.1599978,40.1800034 33.5800036,40.6999982 32.86,41.06 C32.1399964,41.4200018 31.380004,41.6 30.58,41.6 C29.6999956,41.6 28.9800028,41.4100019 28.42,41.03 C27.8599972,40.6499981 27.1200046,39.8800058 26.2,38.72 L9.88,17.78 L9.88,35.24 C9.88,36.1600046 9.8300005,36.919997 9.73,37.52 C9.6299995,38.120003 9.480001,38.6399978 9.28,39.08 C8.9599984,39.7600034 8.4200038,40.3199978 7.66,40.76 C6.8999962,41.2000022 6.120004,41.42 5.32,41.42 C4.4799958,41.42 3.6800038,41.2100021 2.92,40.79 C2.1599962,40.3699979 1.6200016,39.8200034 1.3,39.14 C1.099999,38.6599976 0.9500005,38.120003 0.85,37.52 C0.7499995,36.919997 0.7,36.1600046 0.7,35.24 L0.7,6.32 C0.7,5.2799948 0.7599994,4.4900027 0.88,3.95 C1.0000006,3.4099973 1.2199984,2.9200022 1.54,2.48 C2.4600046,1.2399938 3.6399928,0.62 5.08,0.62 C5.9200042,0.62 6.639997,0.8099981 7.24,1.19 C7.840003,1.5700019 8.539996,2.2399952 9.34,3.2 L26.2,24.44 Z M105.94,21.92 L112.18,4.64 C112.700003,3.1999928 113.309996,2.1600032 114.01,1.52 C114.710003,0.8799968 115.579995,0.56 116.62,0.56 C117.740006,0.56 118.689996,0.9199964 119.47,1.64 C120.250004,2.3600036 120.799998,3.3599936 121.12,4.64 L128.38,34.16 C128.580001,34.8800036 128.7,35.4099983 128.74,35.75 C128.78,36.0900017 128.8,36.459998 128.8,36.86 C128.8,38.1000062 128.360004,39.1499957 127.48,40.01 C126.599996,40.8700043 125.520006,41.3 124.24,41.3 C123.599997,41.3 122.980003,41.1700013 122.38,40.91 C121.779997,40.6499987 121.300002,40.3000022 120.94,39.86 C120.739999,39.6199988 120.580001,39.4100009 120.46,39.23 C120.339999,39.0499991 120.220001,38.8400012 120.1,38.6 C119.979999,38.3599988 119.87,38.0600018 119.77,37.7 C119.669999,37.3399982 119.560001,36.8800028 119.44,36.32 L115.54,20.3 L110.2,37.46 C109.759998,38.860007 109.210003,39.859997 108.55,40.46 C107.889997,41.060003 107.040005,41.36 106,41.36 C103.99999,41.36 102.600004,40.060013 101.8,37.46 L96.52,20.3 L92.74,36.32 C92.4599986,37.3600052 92.2400008,38.0999978 92.08,38.54 C91.9199992,38.9800022 91.640002,39.4199978 91.24,39.86 C90.8799982,40.3000022 90.400003,40.6499987 89.8,40.91 C89.199997,41.1700013 88.5600034,41.3 87.88,41.3 C86.6399938,41.3 85.5800044,40.8700043 84.7,40.01 C83.8199956,39.1499957 83.38,38.120006 83.38,36.92 L83.38,36.38 C83.38,36.2199992 83.3999998,36.0500009 83.44,35.87 C83.4800002,35.6899991 83.5199998,35.4700013 83.56,35.21 C83.6000002,34.9499987 83.6799994,34.6000022 83.8,34.16 L90.82,4.4 C91.1000014,3.199994 91.6299961,2.2600034 92.41,1.58 C93.1900039,0.8999966 94.0999948,0.56 95.14,0.56 C97.1000098,0.56 98.5399954,1.7399882 99.46,4.1 L105.94,21.92 Z M158.08,24.44 L158.08,6.74 C158.08,5.8199954 158.129999,5.060003 158.23,4.46 C158.33,3.859997 158.479999,3.3200024 158.68,2.84 C159.000002,2.1599966 159.539996,1.6100021 160.3,1.19 C161.060004,0.7699979 161.839996,0.56 162.64,0.56 C163.480004,0.56 164.279996,0.7699979 165.04,1.19 C165.800004,1.6100021 166.339998,2.1599966 166.66,2.84 C166.860001,3.3200024 167.009999,3.859997 167.11,4.46 C167.21,5.060003 167.26,5.8199954 167.26,6.74 L167.26,35.54 C167.26,36.7000058 167.21,37.5399974 167.11,38.06 C167.009999,38.5800026 166.800002,39.0599978 166.48,39.5 C166.039998,40.1800034 165.460004,40.6999982 164.74,41.06 C164.019996,41.4200018 163.260004,41.6 162.46,41.6 C161.579996,41.6 160.860003,41.4100019 160.3,41.03 C159.739997,40.6499981 159.000005,39.8800058 158.08,38.72 L141.76,17.78 L141.76,35.24 C141.76,36.1600046 141.71,36.919997 141.61,37.52 C141.509999,38.120003 141.360001,38.6399978 141.16,39.08 C140.839998,39.7600034 140.300004,40.3199978 139.54,40.76 C138.779996,41.2000022 138.000004,41.42 137.2,41.42 C136.359996,41.42 135.560004,41.2100021 134.8,40.79 C134.039996,40.3699979 133.500002,39.8200034 133.18,39.14 C132.979999,38.6599976 132.83,38.120003 132.73,37.52 C132.629999,36.919997 132.58,36.1600046 132.58,35.24 L132.58,6.32 C132.58,5.2799948 132.639999,4.4900027 132.76,3.95 C132.880001,3.4099973 133.099998,2.9200022 133.42,2.48 C134.340005,1.2399938 135.519993,0.62 136.96,0.62 C137.800004,0.62 138.519997,0.8099981 139.12,1.19 C139.720003,1.5700019 140.419996,2.2399952 141.22,3.2 L158.08,24.44 Z M237.82,21.92 L244.06,4.64 C244.580003,3.1999928 245.189996,2.1600032 245.89,1.52 C246.590003,0.8799968 247.459995,0.56 248.5,0.56 C249.620006,0.56 250.569996,0.9199964 251.35,1.64 C252.130004,2.3600036 252.679998,3.3599936 253,4.64 L260.26,34.16 C260.460001,34.8800036 260.58,35.4099983 260.62,35.75 C260.66,36.0900017 260.68,36.459998 260.68,36.86 C260.68,38.1000062 260.240004,39.1499957 259.36,40.01 C258.479996,40.8700043 257.400006,41.3 256.12,41.3 C255.479997,41.3 254.860003,41.1700013 254.26,40.91 C253.659997,40.6499987 253.180002,40.3000022 252.82,39.86 C252.619999,39.6199988 252.460001,39.4100009 252.34,39.23 C252.219999,39.0499991 252.100001,38.8400012 251.98,38.6 C251.859999,38.3599988 251.75,38.0600018 251.65,37.7 C251.549999,37.3399982 251.440001,36.8800028 251.32,36.32 L247.42,20.3 L242.08,37.46 C241.639998,38.860007 241.090003,39.859997 240.43,40.46 C239.769997,41.060003 238.920005,41.36 237.88,41.36 C235.87999,41.36 234.480004,40.060013 233.68,37.46 L228.4,20.3 L224.62,36.32 C224.339999,37.3600052 224.120001,38.0999978 223.96,38.54 C223.799999,38.9800022 223.520002,39.4199978 223.12,39.86 C222.759998,40.3000022 222.280003,40.6499987 221.68,40.91 C221.079997,41.1700013 220.440003,41.3 219.76,41.3 C218.519994,41.3 217.460004,40.8700043 216.58,40.01 C215.699996,39.1499957 215.26,38.120006 215.26,36.92 C215.26,36.6799988 215.26,36.5000006 215.26,36.38 C215.26,36.2199992 215.28,36.0500009 215.32,35.87 C215.36,35.6899991 215.4,35.4700013 215.44,35.21 C215.48,34.9499987 215.559999,34.6000022 215.68,34.16 L222.7,4.4 C222.980001,3.199994 223.509996,2.2600034 224.29,1.58 C225.070004,0.8999966 225.979995,0.56 227.02,0.56 C228.98001,0.56 230.419995,1.7399882 231.34,4.1 L237.82,21.92 Z" id="NOMNOM" fill="#434343"></path>
                        <path d="M60.7,0.38 C63.500014,0.38 66.1399876,0.9199946 68.62,2 C71.1000124,3.0800054 73.2599908,4.5599906 75.1,6.44 C76.9400092,8.3200094 78.3999946,10.5099875 79.48,13.01 C80.5600054,15.5100125 81.1,18.159986 81.1,20.96 C81.1,23.8000142 80.5600054,26.4799874 79.48,29 C78.3999946,31.5200126 76.9200094,33.7099907 75.04,35.57 C73.1599906,37.4300093 70.9700125,38.8999946 68.47,39.98 C65.9699875,41.0600054 63.2800144,41.6 60.4,41.6 C57.5599858,41.6 54.8900125,41.0600054 52.39,39.98 C49.8899875,38.8999946 47.7000094,37.4200094 45.82,35.54 C43.9399906,33.6599906 42.4600054,31.4800124 41.38,29 C40.2999946,26.5199876 39.76,23.8600142 39.76,21.02 C39.76,18.1399856 40.2999946,15.4400126 41.38,12.92 C42.4600054,10.3999874 43.9499905,8.2100093 45.85,6.35 C47.7500095,4.4899907 49.9699873,3.0300053 52.51,1.97 C55.0500127,0.9099947 57.7799854,0.38 60.7,0.38 Z M60.28,9.44 C58.7199922,9.44 57.2500069,9.7499969 55.87,10.37 C54.4899931,10.9900031 53.2800052,11.8199948 52.24,12.86 C51.1999948,13.9000052 50.380003,15.119993 49.78,16.52 C49.179997,17.920007 48.88,19.419992 48.88,21.02 C48.88,22.5800078 49.179997,24.059993 49.78,25.46 C50.380003,26.860007 51.2099947,28.0899947 52.27,29.15 C53.3300053,30.2100053 54.559993,31.039997 55.96,31.64 C57.360007,32.240003 58.8399922,32.54 60.4,32.54 C62.000008,32.54 63.499993,32.240003 64.9,31.64 C66.300007,31.039997 67.5299947,30.2200052 68.59,29.18 C69.6500053,28.1399948 70.479997,26.920007 71.08,25.52 C71.680003,24.119993 71.98,22.620008 71.98,21.02 C71.98,19.3799918 71.680003,17.860007 71.08,16.46 C70.479997,15.059993 69.6500053,13.8400052 68.59,12.8 C67.5299947,11.7599948 66.2900071,10.940003 64.87,10.34 C63.4499929,9.739997 61.9200082,9.44 60.28,9.44 Z M192.7,0.38 C195.500014,0.38 198.139988,0.9199946 200.62,2 C203.100012,3.0800054 205.259991,4.5599906 207.1,6.44 C208.940009,8.3200094 210.399995,10.5099875 211.48,13.01 C212.560005,15.5100125 213.1,18.159986 213.1,20.96 C213.1,23.8000142 212.560005,26.4799874 211.48,29 C210.399995,31.5200126 208.920009,33.7099907 207.04,35.57 C205.159991,37.4300093 202.970012,38.8999946 200.47,39.98 C197.969987,41.0600054 195.280014,41.6 192.4,41.6 C189.559986,41.6 186.890012,41.0600054 184.39,39.98 C181.889987,38.8999946 179.700009,37.4200094 177.82,35.54 C175.939991,33.6599906 174.460005,31.4800124 173.38,29 C172.299995,26.5199876 171.76,23.8600142 171.76,21.02 C171.76,18.1399856 172.299995,15.4400126 173.38,12.92 C174.460005,10.3999874 175.94999,8.2100093 177.85,6.35 C179.750009,4.4899907 181.969987,3.0300053 184.51,1.97 C187.050013,0.9099947 189.779985,0.38 192.7,0.38 Z M192.28,9.44 C190.719992,9.44 189.250007,9.7499969 187.87,10.37 C186.489993,10.9900031 185.280005,11.8199948 184.24,12.86 C183.199995,13.9000052 182.380003,15.119993 181.78,16.52 C181.179997,17.920007 180.88,19.419992 180.88,21.02 C180.88,22.5800078 181.179997,24.059993 181.78,25.46 C182.380003,26.860007 183.209995,28.0899947 184.27,29.15 C185.330005,30.2100053 186.559993,31.039997 187.96,31.64 C189.360007,32.240003 190.839992,32.54 192.4,32.54 C194.000008,32.54 195.499993,32.240003 196.9,31.64 C198.300007,31.039997 199.529995,30.2200052 200.59,29.18 C201.650005,28.1399948 202.479997,26.920007 203.08,25.52 C203.680003,24.119993 203.98,22.620008 203.98,21.02 C203.98,19.3799918 203.680003,17.860007 203.08,16.46 C202.479997,15.059993 201.650005,13.8400052 200.59,12.8 C199.529995,11.7599948 198.290007,10.940003 196.87,10.34 C195.449993,9.739997 193.920008,9.44 192.28,9.44 Z" id="NOMNOM-Copy" fill="#F25987"></path>
                    </g>
                </g>
            </g>
        </g>
    </g>
</svg>