<?xml version="1.0" encoding="UTF-8"?>
<svg width="95px" height="44px" viewBox="0 0 95 44" version="1.1" xmlns="http://www.w3.org/2000/svg" xmlns:xlink="http://www.w3.org/1999/xlink">
    <!-- Generator: Sketch 52.2 (67145) - http://www.bohemiancoding.com/sketch -->
    <title>logo</title>
    <desc>Created with Sketch.</desc>
    <g id="Welcome" stroke="none" stroke-width="1" fill="none" fill-rule="evenodd">
        <g id="Главная" transform="translate(-259.000000, -15.000000)">
            <g id="header" transform="translate(-2.000000, -3.000000)">
                <g id="logo" transform="translate(261.000000, 18.000000)">
                    <path d="M14.1,12.03 L14.1,3.18 C14.1,2.7199977 14.1249998,2.3400015 14.175,2.04 C14.2250003,1.7399985 14.2999995,1.4700012 14.4,1.23 C14.5600008,0.8899983 14.8299981,0.61500105 15.21,0.405 C15.5900019,0.19499895 15.979998,0.09 16.38,0.09 C16.8000021,0.09 17.1999981,0.19499895 17.58,0.405 C17.9600019,0.61500105 18.2299992,0.8899983 18.39,1.23 C18.4900005,1.4700012 18.5649998,1.7399985 18.615,2.04 C18.6650003,2.3400015 18.69,2.7199977 18.69,3.18 L18.69,17.58 C18.69,18.1600029 18.6650003,18.5799987 18.615,18.84 C18.5649998,19.1000013 18.4600008,19.3399989 18.3,19.56 C18.0799989,19.9000017 17.7900018,20.1599991 17.43,20.34 C17.0699982,20.5200009 16.690002,20.61 16.29,20.61 C15.8499978,20.61 15.4900014,20.5150009 15.21,20.325 C14.9299986,20.134999 14.5600023,19.7500029 14.1,19.17 L5.94,8.7 L5.94,17.43 C5.94,17.8900023 5.91500025,18.2699985 5.865,18.57 C5.81499975,18.8700015 5.7400005,19.1299989 5.64,19.35 C5.4799992,19.6900017 5.2100019,19.9699989 4.83,20.19 C4.4499981,20.4100011 4.060002,20.52 3.66,20.52 C3.2399979,20.52 2.8400019,20.415001 2.46,20.205 C2.0799981,19.9949989 1.8100008,19.7200017 1.65,19.38 C1.5499995,19.1399988 1.47500025,18.8700015 1.425,18.57 C1.37499975,18.2699985 1.35,17.8900023 1.35,17.43 L1.35,2.97 C1.35,2.4499974 1.3799997,2.05500135 1.44,1.785 C1.5000003,1.51499865 1.6099992,1.2700011 1.77,1.05 C2.2300023,0.4299969 2.8199964,0.12 3.54,0.12 C3.9600021,0.12 4.3199985,0.21499905 4.62,0.405 C4.9200015,0.59500095 5.269998,0.9299976 5.67,1.41 L14.1,12.03 Z M53.97,10.77 L57.09,2.13 C57.3500013,1.4099964 57.6549982,0.8900016 58.005,0.57 C58.3550017,0.2499984 58.7899974,0.09 59.31,0.09 C59.8700028,0.09 60.344998,0.2699982 60.735,0.63 C61.1250019,0.9900018 61.3999992,1.4899968 61.56,2.13 L65.19,16.89 C65.2900005,17.2500018 65.3499999,17.5149991 65.37,17.685 C65.3900001,17.8550008 65.4,18.039999 65.4,18.24 C65.4,18.8600031 65.1800022,19.3849978 64.74,19.815 C64.2999978,20.2450021 63.7600032,20.46 63.12,20.46 C62.7999984,20.46 62.4900015,20.3950006 62.19,20.265 C61.8899985,20.1349993 61.6500009,19.9600011 61.47,19.74 C61.3699995,19.6199994 61.2900003,19.5150004 61.23,19.425 C61.1699997,19.3349995 61.1100003,19.2300006 61.05,19.11 C60.9899997,18.9899994 60.9350002,18.8400009 60.885,18.66 C60.8349997,18.4799991 60.7800003,18.2500014 60.72,17.97 L58.77,9.96 L56.1,18.54 C55.8799989,19.2400035 55.6050016,19.7399985 55.275,20.04 C54.9449983,20.3400015 54.5200026,20.49 54,20.49 C52.999995,20.49 52.300002,19.8400065 51.9,18.54 L49.26,9.96 L47.37,17.97 C47.2299993,18.4900026 47.1200004,18.8599989 47.04,19.08 C46.9599996,19.3000011 46.820001,19.5199989 46.62,19.74 C46.4399991,19.9600011 46.2000015,20.1349993 45.9,20.265 C45.5999985,20.3950006 45.2800017,20.46 44.94,20.46 C44.3199969,20.46 43.7900022,20.2450021 43.35,19.815 C42.9099978,19.3849978 42.69,18.870003 42.69,18.27 L42.69,18 C42.69,17.9199996 42.6999999,17.8350004 42.72,17.745 C42.7400001,17.6549995 42.7599999,17.5450006 42.78,17.415 C42.8000001,17.2849993 42.8399997,17.1100011 42.9,16.89 L46.41,2.01 C46.5500007,1.409997 46.814998,0.9400017 47.205,0.6 C47.5950019,0.2599983 48.0499974,0.09 48.57,0.09 C49.5500049,0.09 50.2699977,0.6799941 50.73,1.86 L53.97,10.77 Z M76.11,10.38 L91.65,10.38 C92.050002,10.38 92.3749987,10.3999998 92.625,10.44 C92.8750012,10.4800002 93.1099989,10.5499995 93.33,10.65 C93.6100014,10.7900007 93.844999,11.0199984 94.035,11.34 C94.2250009,11.6600016 94.32,11.9999982 94.32,12.36 C94.32,13.0000032 94.1050021,13.4949983 93.675,13.845 C93.2449978,14.1950018 92.6400039,14.37 91.86,14.37 L76.11,14.37 C75.3699963,14.37 74.8100019,14.2800009 74.43,14.1 C74.1499986,13.9599993 73.9150009,13.7250017 73.725,13.395 C73.534999,13.0649984 73.44,12.7300017 73.44,12.39 C73.44,12.0299982 73.534999,11.6850017 73.725,11.355 C73.9150009,11.0249984 74.1499986,10.7900007 74.43,10.65 C74.8100019,10.4699991 75.3699963,10.38 76.11,10.38 Z M2.67,33.38 L18.21,33.38 C18.610002,33.38 18.9349987,33.3999998 19.185,33.44 C19.4350012,33.4800002 19.6699989,33.5499995 19.89,33.65 C20.1700014,33.7900007 20.404999,34.0199984 20.595,34.34 C20.7850009,34.6600016 20.88,34.9999982 20.88,35.36 C20.88,36.0000032 20.6650021,36.4949983 20.235,36.845 C19.8049978,37.1950018 19.2000039,37.37 18.42,37.37 L2.67,37.37 C1.9299963,37.37 1.3700019,37.2800009 0.99,37.1 C0.7099986,36.9599993 0.47500095,36.7250017 0.285,36.395 C0.09499905,36.0649984 -1.42108547e-13,35.7300017 -1.42108547e-13,35.39 C-1.42108547e-13,35.0299982 0.09499905,34.6850017 0.285,34.355 C0.47500095,34.0249984 0.7099986,33.7900007 0.99,33.65 C1.3700019,33.4699991 1.9299963,33.38 2.67,33.38 Z M42.48,35.03 L42.48,26.18 C42.48,25.7199977 42.5049997,25.3400015 42.555,25.04 C42.6050002,24.7399985 42.6799995,24.4700012 42.78,24.23 C42.9400008,23.8899983 43.2099981,23.615001 43.59,23.405 C43.9700019,23.1949989 44.359998,23.09 44.76,23.09 C45.1800021,23.09 45.5799981,23.1949989 45.96,23.405 C46.3400019,23.615001 46.6099992,23.8899983 46.77,24.23 C46.8700005,24.4700012 46.9449997,24.7399985 46.995,25.04 C47.0450002,25.3400015 47.07,25.7199977 47.07,26.18 L47.07,40.58 C47.07,41.1600029 47.0450002,41.5799987 46.995,41.84 C46.9449997,42.1000013 46.8400008,42.3399989 46.68,42.56 C46.4599989,42.9000017 46.1700018,43.1599991 45.81,43.34 C45.4499982,43.5200009 45.070002,43.61 44.67,43.61 C44.2299978,43.61 43.8700014,43.5150009 43.59,43.325 C43.3099986,43.134999 42.9400023,42.7500029 42.48,42.17 L34.32,31.7 L34.32,40.43 C34.32,40.8900023 34.2950002,41.2699985 34.245,41.57 C34.1949997,41.8700015 34.1200005,42.1299989 34.02,42.35 C33.8599992,42.6900017 33.5900019,42.9699989 33.21,43.19 C32.8299981,43.4100011 32.440002,43.52 32.04,43.52 C31.6199979,43.52 31.2200019,43.415001 30.84,43.205 C30.4599981,42.9949989 30.1900008,42.7200017 30.03,42.38 C29.9299995,42.1399988 29.8550002,41.8700015 29.805,41.57 C29.7549997,41.2699985 29.73,40.8900023 29.73,40.43 L29.73,25.97 C29.73,25.4499974 29.7599997,25.0550013 29.82,24.785 C29.8800003,24.5149986 29.9899992,24.2700011 30.15,24.05 C30.6100023,23.4299969 31.1999964,23.12 31.92,23.12 C32.3400021,23.12 32.6999985,23.214999 33,23.405 C33.3000015,23.5950009 33.649998,23.9299976 34.05,24.41 L42.48,35.03 Z M82.35,33.77 L85.47,25.13 C85.7300013,24.4099964 86.0349982,23.8900016 86.385,23.57 C86.7350017,23.2499984 87.1699974,23.09 87.69,23.09 C88.2500028,23.09 88.724998,23.2699982 89.115,23.63 C89.5050019,23.9900018 89.7799992,24.4899968 89.94,25.13 L93.57,39.89 C93.6700005,40.2500018 93.7299999,40.5149991 93.75,40.685 C93.7700001,40.8550008 93.78,41.039999 93.78,41.24 C93.78,41.8600031 93.5600022,42.3849978 93.12,42.815 C92.6799978,43.2450021 92.1400032,43.46 91.5,43.46 C91.1799984,43.46 90.8700015,43.3950006 90.57,43.265 C90.2699985,43.1349993 90.0300009,42.9600011 89.85,42.74 C89.7499995,42.6199994 89.6700003,42.5150004 89.61,42.425 C89.5499997,42.3349995 89.4900003,42.2300006 89.43,42.11 C89.3699997,41.9899994 89.3150002,41.8400009 89.265,41.66 C89.2149997,41.4799991 89.1600003,41.2500014 89.1,40.97 L87.15,32.96 L84.48,41.54 C84.2599989,42.2400035 83.9850016,42.7399985 83.655,43.04 C83.3249983,43.3400015 82.9000026,43.49 82.38,43.49 C81.379995,43.49 80.680002,42.8400065 80.28,41.54 L77.64,32.96 L75.75,40.97 C75.6099993,41.4900026 75.5000004,41.8599989 75.42,42.08 C75.3399996,42.3000011 75.200001,42.5199989 75,42.74 C74.8199991,42.9600011 74.5800015,43.1349993 74.28,43.265 C73.9799985,43.3950006 73.6600017,43.46 73.32,43.46 C72.6999969,43.46 72.1700022,43.2450021 71.73,42.815 C71.2899978,42.3849978 71.07,41.870003 71.07,41.27 C71.07,41.1499994 71.07,41.0600003 71.07,41 C71.07,40.9199996 71.0799999,40.8350004 71.1,40.745 C71.1200001,40.6549995 71.1399999,40.5450006 71.16,40.415 C71.1800001,40.2849993 71.2199997,40.1100011 71.28,39.89 L74.79,25.01 C74.9300007,24.409997 75.194998,23.9400017 75.585,23.6 C75.9750019,23.2599983 76.4299974,23.09 76.95,23.09 C77.9300049,23.09 78.6499977,23.6799941 79.11,24.86 L82.35,33.77 Z" id="NOM-—-—-NOM" fill="#FFFFFF"></path>
                    <path d="M31.47,1.27897692e-13 C32.870007,1.27897692e-13 34.1899938,0.2699973 35.43,0.81 C36.6700062,1.3500027 37.7499954,2.0899953 38.67,3.03 C39.5900046,3.9700047 40.3199973,5.06499375 40.86,6.315 C41.4000027,7.56500625 41.67,8.889993 41.67,10.29 C41.67,11.7100071 41.4000027,13.0499937 40.86,14.31 C40.3199973,15.5700063 39.5800047,16.6649954 38.64,17.595 C37.6999953,18.5250047 36.6050063,19.2599973 35.355,19.8 C34.1049938,20.3400027 32.7600072,20.61 31.32,20.61 C29.8999929,20.61 28.5650063,20.3400027 27.315,19.8 C26.0649938,19.2599973 24.9700047,18.5200047 24.03,17.58 C23.0899953,16.6399953 22.3500027,15.5500062 21.81,14.31 C21.2699973,13.0699938 21,11.7400071 21,10.32 C21,8.8799928 21.2699973,7.5300063 21.81,6.27 C22.3500027,5.0099937 23.0949953,3.91500465 24.045,2.985 C24.9950048,2.05499535 26.1049937,1.32500265 27.375,0.795 C28.6450064,0.26499735 30.0099927,1.27897692e-13 31.47,1.27897692e-13 Z M31.26,4.53 C30.4799961,4.53 29.7450034,4.68499845 29.055,4.995 C28.3649965,5.30500155 27.7600026,5.7199974 27.24,6.24 C26.7199974,6.7600026 26.3100015,7.3699965 26.01,8.07 C25.7099985,8.7700035 25.56,9.519996 25.56,10.32 C25.56,11.1000039 25.7099985,11.8399965 26.01,12.54 C26.3100015,13.2400035 26.7249973,13.8549974 27.255,14.385 C27.7850026,14.9150027 28.3999965,15.3299985 29.1,15.63 C29.8000035,15.9300015 30.5399961,16.08 31.32,16.08 C32.120004,16.08 32.8699965,15.9300015 33.57,15.63 C34.2700035,15.3299985 34.8849973,14.9200026 35.415,14.4 C35.9450026,13.8799974 36.3599985,13.2700035 36.66,12.57 C36.9600015,11.8699965 37.11,11.120004 37.11,10.32 C37.11,9.4999959 36.9600015,8.7400035 36.66,8.04 C36.3599985,7.3399965 35.9450026,6.7300026 35.415,6.21 C34.8849973,5.6899974 34.2650035,5.2800015 33.555,4.98 C32.8449964,4.6799985 32.0800041,4.53 31.26,4.53 Z" id="Combined-Shape" fill="#434343"></path>
                    <path d="M59.85,23 C61.250007,23 62.5699938,23.2699973 63.81,23.81 C65.0500062,24.3500027 66.1299954,25.0899953 67.05,26.03 C67.9700046,26.9700047 68.6999973,28.0649938 69.24,29.315 C69.7800027,30.5650063 70.05,31.889993 70.05,33.29 C70.05,34.7100071 69.7800027,36.0499937 69.24,37.31 C68.6999973,38.5700063 67.9600047,39.6649954 67.02,40.595 C66.0799953,41.5250047 64.9850063,42.2599973 63.735,42.8 C62.4849938,43.3400027 61.1400072,43.61 59.7,43.61 C58.2799929,43.61 56.9450063,43.3400027 55.695,42.8 C54.4449938,42.2599973 53.3500047,41.5200047 52.41,40.58 C51.4699953,39.6399953 50.7300027,38.5500062 50.19,37.31 C49.6499973,36.0699938 49.38,34.7400071 49.38,33.32 C49.38,31.8799928 49.6499973,30.5300063 50.19,29.27 C50.7300027,28.0099937 51.4749953,26.9150047 52.425,25.985 C53.3750048,25.0549954 54.4849937,24.3250027 55.755,23.795 C57.0250064,23.2649974 58.3899927,23 59.85,23 Z M59.64,27.53 C58.8599961,27.53 58.1250034,27.6849985 57.435,27.995 C56.7449965,28.3050016 56.1400026,28.7199974 55.62,29.24 C55.0999974,29.7600026 54.6900015,30.3699965 54.39,31.07 C54.0899985,31.7700035 53.94,32.519996 53.94,33.32 C53.94,34.1000039 54.0899985,34.8399965 54.39,35.54 C54.6900015,36.2400035 55.1049973,36.8549974 55.635,37.385 C56.1650026,37.9150027 56.7799965,38.3299985 57.48,38.63 C58.1800035,38.9300015 58.9199961,39.08 59.7,39.08 C60.500004,39.08 61.2499965,38.9300015 61.95,38.63 C62.6500035,38.3299985 63.2649973,37.9200026 63.795,37.4 C64.3250026,36.8799974 64.7399985,36.2700035 65.04,35.57 C65.3400015,34.8699965 65.49,34.120004 65.49,33.32 C65.49,32.4999959 65.3400015,31.7400035 65.04,31.04 C64.7399985,30.3399965 64.3250026,29.7300026 63.795,29.21 C63.2649973,28.6899974 62.6450035,28.2800015 61.935,27.98 C61.2249964,27.6799985 60.4600041,27.53 59.64,27.53 Z" id="Combined-Shape" fill="#434343"></path>
                </g>
            </g>
        </g>
    </g>
</svg>